<svg xmlns="http://www.w3.org/2000/svg" version="1.1" xmlns:xlink="http://www.w3.org/1999/xlink" xmlns:svgjs="http://svgjs.dev/svgjs" width="1000" height="1000" viewBox="0 0 1000 1000"><rect width="1000" height="1000" fill="#000000"></rect><g transform="matrix(0.7,0,0,0.7,150,106.25)"><svg viewBox="0 0 320 360" data-background-color="#ffffff" preserveAspectRatio="xMidYMid meet" height="1125" width="1000" xmlns="http://www.w3.org/2000/svg" xmlns:xlink="http://www.w3.org/1999/xlink"><g id="tight-bounds" transform="matrix(1,0,0,1,0,0)"><svg viewBox="0 0 320 360" height="360" width="320"><g><svg></svg></g><g><svg viewBox="0 0 320 360" height="360" width="320"><g><path xmlns="http://www.w3.org/2000/svg" d="M297.491 100.645c-12.426-21.51-112.674-79.355-137.491-79.355-24.817 0-125.028 57.845-137.491 79.355-11.591 20.02-11.591 138.726 0 158.746 12.463 21.474 112.674 79.319 137.491 79.319 24.817 0 125.064-57.845 137.491-79.355 11.591-20.02 11.591-138.69 0-158.71zM309.481 93.705c-14.461-24.998-119.469-86.295-149.481-86.295-30.012 0-135.02 61.297-149.481 86.295-14.025 24.199-14.025 148.391 0 172.59 14.461 24.998 119.469 86.295 149.481 86.295 30.012 0 135.02-61.297 149.481-86.259 14.025-24.235 14.025-148.427 0-172.626zM300.906 261.353c-12.753 22.055-115.472 81.317-140.906 81.318-25.434 0-128.153-59.298-140.906-81.354-11.881-20.529-11.881-142.178 0-162.707 12.753-22.019 115.472-81.281 140.906-81.281 25.434 0 128.153 59.298 140.906 81.318 11.881 20.529 11.881 142.178 0 162.706z" fill="#ffffff" fill-rule="nonzero" stroke="none" stroke-width="1" stroke-linecap="butt" stroke-linejoin="miter" stroke-miterlimit="10" stroke-dasharray="" stroke-dashoffset="0" font-family="none" font-weight="none" font-size="none" text-anchor="none" style="mix-blend-mode: normal" data-fill-palette-color="tertiary"></path></g><g transform="matrix(1,0,0,1,48,131.34219245315904)"><svg viewBox="0 0 224 97.31561509368191" height="97.31561509368191" width="224"><g><svg viewBox="0 0 224 97.31561509368191" height="97.31561509368191" width="224"><g><svg viewBox="0 0 224 97.31561509368191" height="97.31561509368191" width="224"><g transform="matrix(1,0,0,1,0,60.14495423674655)"><svg viewBox="0 0 224 37.17066085693536" height="37.17066085693536" width="224"><g id="textblocktransform"><svg viewBox="0 0 224 37.17066085693536" height="37.17066085693536" width="224" id="textblock"><g><svg viewBox="0 0 224 37.17066085693536" height="37.17066085693536" width="224"><g transform="matrix(1,0,0,1,0,0)"><svg width="224" viewBox="0.6299999952316284 -40.15999984741211 336.1499938964844 55.790000915527344" height="37.17066085693536" data-palette-color="#ff0000"><path d="M0.63-0.2L0.63-1.27Q0.63-1.32 0.67-1.39 0.71-1.46 0.83-1.46L0.83-1.46Q2.44-1.46 3.33-1.84 4.22-2.22 4.65-2.89 5.08-3.56 5.18-4.49 5.27-5.42 5.32-6.49L5.32-6.49Q5.47-9.64 5.68-12.61 5.88-15.58 6.08-18.44 6.27-21.31 6.42-24.12 6.57-26.93 6.57-29.76L6.57-29.76 6.57-30.66Q6.57-31.23 6.2-31.65 5.83-32.08 5.33-32.37 4.83-32.67 4.32-32.81 3.81-32.96 3.52-32.96L3.52-32.96Q3.32-32.96 3.32-33.15L3.32-33.15 3.32-34.23Q3.32-34.28 3.34-34.35 3.37-34.42 3.52-34.42L3.52-34.42 12.16-34.42Q12.43-34.38 12.6-34.24 12.77-34.11 12.92-33.89L12.92-33.89 23.54-10.21Q23.71-9.79 23.97-9.79L23.97-9.79Q24.24-9.79 24.37-9.91 24.49-10.03 24.56-10.23L24.56-10.23 35.06-33.45Q35.3-33.91 35.55-34.17 35.79-34.42 36.04-34.42L36.04-34.42 44.63-34.42Q44.78-34.42 44.8-34.35 44.82-34.28 44.82-34.23L44.82-34.23 44.82-33.15Q44.82-33.11 44.79-33.03 44.75-32.96 44.63-32.96L44.63-32.96Q44.58-32.96 44.06-32.86 43.53-32.76 42.91-32.48 42.29-32.2 41.77-31.68 41.26-31.15 41.26-30.3L41.26-30.3 42.68-4.3Q42.7-3.59 43.05-3.1 43.41-2.61 43.92-2.29 44.43-1.98 45.01-1.82 45.58-1.66 46.08-1.57 46.58-1.49 46.94-1.48 47.29-1.46 47.31-1.46L47.31-1.46Q47.44-1.46 47.47-1.39 47.51-1.32 47.51-1.27L47.51-1.27 47.51-0.2Q47.51-0.15 47.47-0.07 47.44 0 47.31 0L47.31 0 31.25 0Q31.05 0 31.05-0.2L31.05-0.2 31.05-1.27Q31.05-1.46 31.25-1.46L31.25-1.46Q31.84-1.46 32.58-1.53 33.33-1.59 34.01-1.81 34.69-2.03 35.16-2.45 35.62-2.88 35.62-3.59L35.62-3.59 34.5-23.54Q34.47-23.78 34.38-23.78L34.38-23.78Q34.28-23.78 34.18-23.56L34.18-23.56 23.49-0.42Q23.36-0.15 23.16-0.07 22.95 0 22.44 0L22.44 0Q21.56 0 21.13-0.05 20.7-0.1 20.56-0.44L20.56-0.44 10.16-23.36Q10.08-23.54 10.05-23.62 10.01-23.71 9.91-23.71L9.91-23.71Q9.74-23.71 9.74-23.39L9.74-23.39Q9.74-22.66 9.67-21.24 9.59-19.82 9.47-18.05 9.35-16.28 9.23-14.31 9.11-12.33 8.98-10.47 8.86-8.62 8.79-7.02 8.72-5.42 8.72-4.39L8.72-4.39 8.72-3.39Q8.81-2.93 9.2-2.56 9.59-2.2 10.18-1.95 10.77-1.71 11.47-1.59 12.18-1.46 12.96-1.46L12.96-1.46Q13.09-1.46 13.1-1.39 13.11-1.32 13.11-1.27L13.11-1.27 13.11-0.2Q13.11 0 12.96 0L12.96 0 0.83 0Q0.63 0 0.63-0.2L0.63-0.2ZM62.99 0L50.24 0Q50.1-0.05 50.05-0.33 50-0.61 50-0.76L50-0.76Q50-0.88 50.07-1.15 50.14-1.42 50.24-1.46L50.24-1.46Q50.56-1.61 51.14-1.7 51.73-1.78 52.32-2.04 52.9-2.29 53.34-2.84 53.78-3.39 53.78-4.47L53.78-4.47 53.78-16.19Q53.78-16.77 53.46-17.1 53.15-17.43 52.66-17.6 52.17-17.77 51.61-17.88 51.05-17.99 50.53-18.14L50.53-18.14Q50.39-18.19 50.3-18.27 50.22-18.36 50.22-18.63L50.22-18.63Q50.22-18.75 50.29-18.87 50.36-18.99 50.58-19.12L50.58-19.12 58.66-22.92Q58.76-22.97 58.87-23.02 58.98-23.07 59.03-23.07L59.03-23.07Q59.45-23.07 59.45-22.49L59.45-22.49 59.45-4.47Q59.45-3.39 59.89-2.84 60.32-2.29 60.91-2.04 61.5-1.78 62.08-1.7 62.67-1.61 62.99-1.46L62.99-1.46Q63.08-1.42 63.16-1.15 63.23-0.88 63.23-0.76L63.23-0.76Q63.23-0.61 63.18-0.33 63.13-0.05 62.99 0L62.99 0ZM52.73-31.91L52.73-31.91Q52.73-33.47 53.66-34.4 54.59-35.33 56.15-35.33L56.15-35.33Q57.71-35.33 58.64-34.4 59.57-33.47 59.57-31.91L59.57-31.91Q59.57-30.35 58.64-29.43 57.71-28.52 56.15-28.52L56.15-28.52Q54.59-28.52 53.66-29.43 52.73-30.35 52.73-31.91ZM78.66-23.02L78.66-23.02Q81-23.02 82.86-22.41 84.71-21.8 85.96-20.63L85.96-20.63Q87.5-20.68 88.9-20.8 90.3-20.92 91.91-20.92L91.91-20.92Q92.48-20.92 92.83-20.89 93.18-20.85 93.38-20.76 93.57-20.68 93.67-20.54 93.77-20.41 93.82-20.21L93.82-20.21Q93.99-19.6 94.06-19.12 94.14-18.63 94.14-18.12L94.14-18.12Q94.14-17.7 93.83-17.57 93.53-17.43 92.6-17.43L92.6-17.43 88.13-17.43Q88.47-16.87 88.8-16.11 89.13-15.36 89.13-14.18L89.13-14.18Q89.13-12.5 88.37-10.9 87.62-9.3 86.15-8.08 84.69-6.86 82.58-6.12 80.46-5.37 77.75-5.37L77.75-5.37Q76.92-5.37 76.41-5.43 75.9-5.49 75.34-5.64L75.34-5.64Q75-5.35 74.48-5.11 73.97-4.88 73.48-4.59 72.99-4.3 72.65-3.92 72.31-3.54 72.31-2.95L72.31-2.95Q72.31-1.93 74.1-1.48 75.9-1.03 79.9-1L79.9-1Q82.95-0.98 85.46-0.83 87.96-0.68 89.74-0.06 91.52 0.56 92.5 1.87 93.48 3.17 93.48 5.52L93.48 5.52Q93.48 6.49 93.01 7.63 92.55 8.76 91.61 9.89 90.67 11.01 89.25 12.05 87.84 13.09 85.92 13.88 84 14.67 81.59 15.15 79.17 15.63 76.26 15.63L76.26 15.63Q73.7 15.63 71.8 15.12 69.89 14.62 68.65 13.79 67.4 12.96 66.78 11.9 66.16 10.84 66.16 9.72L66.16 9.72Q66.16 8.86 66.5 8.18 66.84 7.5 67.4 6.92 67.96 6.35 68.66 5.85 69.36 5.35 70.06 4.82 70.77 4.3 71.43 3.72 72.09 3.15 72.58 2.42L72.58 2.42Q71.28 2.25 70.22 1.81 69.16 1.37 68.42 0.78 67.67 0.2 67.26-0.5 66.84-1.2 66.84-1.9L66.84-1.9Q66.84-2.56 67.19-3.05 67.55-3.54 68.12-3.92 68.7-4.3 69.43-4.61 70.16-4.93 70.94-5.22L70.94-5.22Q71.43-5.42 71.98-5.65 72.53-5.88 73.12-6.3L73.12-6.3Q70.21-7.47 68.72-9.35 67.23-11.23 67.23-13.7L67.23-13.7Q67.23-15.65 68.11-17.36 68.99-19.07 70.53-20.32 72.07-21.58 74.15-22.3 76.24-23.02 78.66-23.02ZM71.72 7.71L71.72 7.71Q71.72 8.74 72.35 9.78 72.97 10.82 74.03 11.65 75.09 12.48 76.53 13 77.97 13.53 79.61 13.53L79.61 13.53Q81.32 13.53 82.93 12.95 84.54 12.38 85.79 11.43 87.03 10.47 87.79 9.22 88.54 7.96 88.54 6.59L88.54 6.59Q88.54 5.79 88.29 5.18 88.03 4.57 87.59 4.15 87.15 3.74 86.57 3.49 85.98 3.25 85.35 3.2L85.35 3.2Q84.83 3.15 83.64 3.11 82.44 3.08 80.95 3.03L80.95 3.03Q80.05 3 79.17 2.99 78.29 2.98 77.55 2.95 76.8 2.93 76.2 2.91 75.61 2.88 75.26 2.83L75.26 2.83Q74.8 3.37 74.19 3.85 73.58 4.32 73.03 4.87 72.48 5.42 72.1 6.1 71.72 6.79 71.72 7.71ZM83.27-13.65L83.27-13.65Q83.27-15.53 82.88-17 82.49-18.48 81.77-19.49 81.05-20.51 80.07-21.03 79.1-21.56 77.92-21.56L77.92-21.56Q77.22-21.56 76.37-21.28 75.53-21 74.8-20.25 74.07-19.51 73.58-18.21 73.09-16.92 73.09-14.89L73.09-14.89Q73.09-13.6 73.38-12.18 73.68-10.77 74.32-9.57 74.97-8.37 76-7.6 77.02-6.84 78.49-6.84L78.49-6.84Q79.58-6.84 80.46-7.34 81.34-7.84 81.97-8.73 82.59-9.62 82.93-10.88 83.27-12.13 83.27-13.65ZM98.33-17.82L98.33-17.82Q98.26-18.53 97.69-19.03 97.11-19.53 96.45-19.68L96.45-19.68Q96.28-19.73 96.07-19.74 95.87-19.75 95.7-19.79 95.52-19.82 95.41-19.91 95.31-20 95.31-20.21L95.31-20.21Q95.31-20.41 95.37-20.56 95.43-20.7 95.7-20.78L95.7-20.78 103.14-22.92Q103.29-22.97 103.45-23 103.61-23.02 103.75-23.02L103.75-23.02Q104-23.02 104-22.61L104-22.61 104-6.13Q104-5.3 104.37-4.63 104.75-3.96 105.36-3.49 105.97-3.03 106.76-2.78 107.54-2.54 108.37-2.54L108.37-2.54Q108.95-2.54 109.59-2.73 110.22-2.93 110.81-3.23 111.39-3.54 111.91-3.94 112.42-4.35 112.74-4.79L112.74-4.79 112.74-17.85Q112.66-18.55 112.09-19.06 111.52-19.56 110.86-19.7L110.86-19.7Q110.69-19.75 110.48-19.76 110.27-19.78 110.1-19.81 109.93-19.85 109.82-19.93 109.71-20.02 109.71-20.24L109.71-20.24Q109.71-20.43 109.77-20.58 109.83-20.73 110.1-20.8L110.1-20.8 117.55-22.92Q117.69-22.97 117.85-23 118.01-23.02 118.16-23.02L118.16-23.02Q118.4-23.02 118.4-22.8L118.4-22.8 118.4-5.96Q118.52-4.88 119.01-4.42 119.5-3.96 120.6-3.96L120.6-3.96 122.01-4.05Q122.11-4.05 122.14-3.72 122.16-3.39 122.16-3.25L122.16-3.25Q122.16-3.2 122.1-2.93 122.04-2.66 121.79-2.54L121.79-2.54 114.37 0.51Q114.32 0.54 114.13 0.6 113.93 0.66 113.91 0.66L113.91 0.66Q113.74 0.66 113.7 0.45 113.66 0.24 113.66 0.05L113.66 0.05 113.66-2.29Q113.59-2.39 113.42-2.39L113.42-2.39Q113.37-2.39 113.32-2.39 113.27-2.39 113.27-2.34L113.27-2.34 109.37-0.44Q108.83-0.24 108.37-0.06 107.9 0.12 107.45 0.29 107 0.46 106.49 0.56 105.97 0.66 105.36 0.66L105.36 0.66Q104.34 0.66 103.11 0.45 101.87 0.24 100.81-0.21 99.75-0.66 99.04-1.37 98.33-2.08 98.33-3.08L98.33-3.08 98.33-17.82ZM125.33-9.89L125.33-9.89Q125.33-12.74 126.14-15.15 126.94-17.55 128.46-19.31 129.97-21.07 132.16-22.05 134.34-23.02 137.12-23.02L137.12-23.02Q137.95-23.02 138.61-22.91 139.27-22.8 139.82-22.62 140.37-22.44 140.85-22.18 141.32-21.92 141.81-21.63L141.81-21.63Q142.37-21.34 143.09-20.58 143.81-19.82 144.45-18.82 145.08-17.82 145.52-16.69 145.96-15.55 145.96-14.5L145.96-14.5Q145.96-14.16 145.83-13.76 145.69-13.35 145.38-13.35L145.38-13.35 130.97-13.35Q130.73-13.35 130.64-12.92 130.56-12.48 130.56-11.84L130.56-11.84Q130.56-9.69 131.18-8.02 131.8-6.35 132.85-5.19 133.9-4.03 135.27-3.43 136.64-2.83 138.15-2.83L138.15-2.83Q139.1-2.83 139.98-3.09 140.86-3.34 141.66-3.76 142.47-4.17 143.18-4.69 143.89-5.2 144.52-5.71L144.52-5.71Q144.67-5.76 144.72-5.76L144.72-5.76Q144.79-5.76 144.91-5.64L144.91-5.64Q145.13-5.44 145.35-5.19 145.57-4.93 145.69-4.76L145.69-4.76Q145.77-4.69 145.77-4.61L145.77-4.61Q145.77-4.54 145.67-4.44L145.67-4.44Q144.86-3.49 143.69-2.58 142.52-1.66 141.19-0.94 139.86-0.22 138.47 0.22 137.07 0.66 135.83 0.66L135.83 0.66Q133.32 0.66 131.36-0.26 129.41-1.17 128.07-2.66 126.72-4.15 126.03-6.04 125.33-7.93 125.33-9.89ZM131.68-15.23L139.66-15.23Q140.3-15.23 140.3-15.8L140.3-15.8Q140.3-16.75 139.99-17.59 139.69-18.43 139.13-19.08 138.56-19.73 137.77-20.09 136.98-20.46 136-20.46L136-20.46Q134.83-20.46 133.95-19.96 133.07-19.46 132.46-18.75 131.85-18.04 131.55-17.29 131.24-16.53 131.24-15.99L131.24-15.99Q131.24-15.58 131.36-15.41 131.48-15.23 131.68-15.23L131.68-15.23ZM162.1-0.73L162.1-0.73Q162.1-0.59 162.05-0.32 162-0.05 161.85 0L161.85 0 149.11 0Q148.96-0.05 148.91-0.32 148.86-0.59 148.86-0.73L148.86-0.73Q148.86-0.85 148.94-1.12 149.01-1.39 149.11-1.44L149.11-1.44Q149.43-1.59 150.01-1.67 150.6-1.76 151.18-2.01 151.77-2.27 152.21-2.82 152.65-3.37 152.65-4.44L152.65-4.44 152.65-32.91Q152.65-33.5 152.33-33.83 152.01-34.16 151.53-34.33 151.04-34.5 150.48-34.61 149.91-34.72 149.4-34.86L149.4-34.86Q149.08-34.99 149.08-35.55L149.08-35.55Q149.08-35.67 149.16-35.88 149.23-36.08 149.45-36.21L149.45-36.21 157.53-40.01Q157.63-40.06 157.75-40.11 157.87-40.16 158.02-40.16L158.02-40.16Q158.22-40.16 158.26-40.03 158.31-39.89 158.31-39.58L158.31-39.58 158.31-4.44Q158.31-3.37 158.75-2.82 159.19-2.27 159.78-2.01 160.36-1.76 160.95-1.67 161.54-1.59 161.85-1.44L161.85-1.44Q161.95-1.39 162.02-1.12 162.1-0.85 162.1-0.73ZM195.61 0L178.82 0Q178.62 0 178.62-0.24L178.62-0.24 178.62-1.27Q178.62-1.29 178.64-1.38 178.67-1.46 178.82-1.46L178.82-1.46Q179.65-1.46 180.37-1.71 181.09-1.95 181.62-2.37 182.16-2.78 182.48-3.37 182.8-3.96 182.8-4.64L182.8-4.64 182.8-29.44Q182.8-30.66 182.55-31.36 182.31-32.06 181.83-32.41 181.35-32.76 180.63-32.85 179.91-32.93 178.96-32.93L178.96-32.93 177.86-32.93Q177.59-32.93 177.47-33.24 177.35-33.54 177.35-33.76L177.35-33.76Q177.35-33.89 177.4-34.13 177.45-34.38 177.67-34.42L177.67-34.42Q177.69-34.42 177.83-34.42 177.96-34.42 178.3-34.44 178.64-34.45 179.22-34.46 179.79-34.47 180.72-34.5L180.72-34.5Q182.06-34.52 183.59-34.57 185.11-34.62 186.68-34.67 188.24-34.72 189.77-34.75 191.29-34.79 192.63-34.79L192.63-34.79 196.08-34.79Q198.03-34.79 199.88-34.13 201.74-33.47 203.18-32.19 204.62-30.91 205.5-29 206.38-27.1 206.38-24.61L206.38-24.61Q206.38-23.05 205.92-21.62 205.45-20.19 204.66-18.99 203.86-17.8 202.83-16.83 201.79-15.87 200.65-15.21 199.52-14.55 198.35-14.21L198.35-14.21Q197.32-13.94 196.42-13.94L196.42-13.94Q196.27-13.94 196.15-13.94L196.15-13.94 190.31-14.23Q190.29-14.23 190.12-14.23 189.95-14.23 189.88-14.18L189.88-14.18Q189.8-14.14 189.78-14.09 189.75-14.04 189.75-13.89L189.75-13.89 189.75-4.71Q189.75-3.76 190.28-3.14 190.8-2.51 191.65-2.15 192.49-1.78 193.54-1.62 194.59-1.46 195.61-1.46L195.61-1.46Q195.76-1.46 195.78-1.39 195.81-1.32 195.81-1.27L195.81-1.27 195.81-0.2Q195.81-0.15 195.77-0.07 195.73 0 195.61 0L195.61 0ZM189.75-17.72L189.8-16.99Q189.83-16.8 189.91-16.64 190-16.48 190.27-16.46L190.27-16.46Q190.36-16.46 190.62-16.43 190.88-16.41 191.22-16.38 191.56-16.36 191.96-16.33 192.37-16.31 192.76-16.31L192.76-16.31Q194.39-16.31 195.62-16.97 196.86-17.63 197.68-18.81 198.49-20 198.9-21.62 199.3-23.24 199.3-25.2L199.3-25.2Q199.3-29.22 197.69-31.1 196.08-32.98 192.95-32.98L192.95-32.98Q192.61-32.98 192.32-32.97 192.02-32.96 191.73-32.95 191.44-32.93 191.11-32.92 190.78-32.91 190.36-32.89L190.36-32.89Q190.22-32.89 189.98-32.82 189.75-32.76 189.75-32.5L189.75-32.5 189.75-17.72ZM220.37-2.71L217.51-0.49Q216.7 0.07 215.61 0.39 214.51 0.71 213.41 0.71L213.41 0.71Q210.43 0.71 208.88-0.63 207.33-1.98 207.33-4.27L207.33-4.27Q207.33-5.59 207.93-6.54 208.52-7.5 209.7-8.23 210.87-8.96 212.59-9.56 214.31-10.16 216.58-10.74L216.58-10.74Q217.8-11.06 218.55-11.43 219.29-11.79 219.93-12.13L219.93-12.13Q220.34-12.35 220.4-12.52 220.46-12.7 220.46-12.84L220.46-12.84 220.46-17.09Q220.46-17.9 220.23-18.59 220-19.29 219.54-19.8 219.07-20.31 218.41-20.61 217.75-20.9 216.92-20.9L216.92-20.9Q216.22-20.9 215.61-20.65 214.99-20.41 214.56-19.95 214.12-19.48 213.86-18.85 213.6-18.21 213.6-17.41L213.6-17.41Q213.6-17.33 213.62-17.19 213.63-17.04 213.65-16.88 213.68-16.72 213.7-16.6 213.73-16.48 213.73-16.46L213.73-16.46Q213.7-16.41 213.32-16.26 212.94-16.11 212.39-15.93 211.85-15.75 211.19-15.56 210.53-15.38 209.93-15.21 209.33-15.04 208.88-14.9 208.43-14.77 208.26-14.75L208.26-14.75Q207.99-14.75 207.93-15.03 207.87-15.31 207.87-15.58L207.87-15.58Q207.87-16.99 208.72-18.33 209.57-19.68 211-20.72 212.43-21.75 214.29-22.39 216.14-23.02 218.12-23.02L218.12-23.02Q219.88-23.02 221.27-22.57 222.66-22.12 223.64-21.33 224.61-20.53 225.13-19.49 225.64-18.46 225.64-17.29L225.64-17.29 225.64-5.64Q225.64-5 226.12-4.5 226.59-4 227.35-4L227.35-4Q227.79-4 228.14-4.16 228.5-4.32 228.78-4.53 229.06-4.74 229.25-4.9 229.45-5.05 229.59-5.05L229.59-5.05Q229.79-5.05 229.81-4.9 229.84-4.74 229.84-4.61L229.84-4.61Q229.84-4.2 229.73-3.77 229.62-3.34 229.35-3.15L229.35-3.15Q228.15-2.25 227.23-1.53 226.3-0.81 225.54-0.29 224.78 0.22 224.17 0.49 223.56 0.76 223.03 0.76L223.03 0.76Q222.54 0.76 222.16 0.49 221.78 0.22 221.5-0.17 221.22-0.56 221.02-1.01 220.83-1.46 220.7-1.86 220.56-2.25 220.49-2.49 220.41-2.73 220.37-2.71L220.37-2.71ZM213.02-4.86L213.02-4.86Q213.02-4.2 213.27-3.78 213.53-3.37 213.94-3.15 214.36-2.93 214.88-2.84 215.41-2.76 215.97-2.76L215.97-2.76Q216.48-2.76 217.24-3.02 218-3.27 218.72-3.7 219.44-4.13 219.95-4.68 220.46-5.22 220.46-5.79L220.46-5.79 220.46-9.81Q220.46-10.08 220.27-10.08L220.27-10.08Q220.22-10.08 220.17-10.06L220.17-10.06 214.51-7.42Q214.16-7.18 213.88-6.97 213.6-6.76 213.41-6.48 213.21-6.2 213.11-5.82 213.02-5.44 213.02-4.86ZM232.3-19.12L240.38-22.92Q240.48-22.97 240.59-23.02 240.7-23.07 240.75-23.07L240.75-23.07Q241.16-23.07 241.16-22.49L241.16-22.49 241.16-18.33Q241.16-18.26 241.18-18.15 241.19-18.04 241.31-18.04L241.31-18.04Q241.43-18.04 241.51-18.13 241.58-18.21 241.65-18.29L241.65-18.29Q242.09-18.87 242.64-19.59 243.19-20.31 243.81-20.95 244.44-21.58 245.09-22.01 245.75-22.44 246.39-22.44L246.39-22.44Q246.83-22.44 247.54-22.19 248.24-21.95 248.92-21.62 249.59-21.29 250.06-20.94 250.54-20.58 250.54-20.36L250.54-20.36Q250.54-20.14 250.32-19.54 250.1-18.95 249.77-18.33 249.44-17.72 249.06-17.25 248.68-16.77 248.37-16.77L248.37-16.77 248.32-16.77Q247.88-16.92 247.43-17.13 246.97-17.33 246.51-17.54 246.05-17.75 245.57-17.88 245.09-18.02 244.61-18.02L244.61-18.02Q243.87-18.02 243.24-17.71 242.6-17.41 242.15-16.93 241.7-16.46 241.43-15.87 241.16-15.28 241.16-14.75L241.16-14.75 241.16-4.44Q241.16-3.74 241.47-3.26 241.77-2.78 242.25-2.48 242.73-2.17 243.3-2.01 243.87-1.86 244.41-1.76 244.95-1.66 245.39-1.6 245.83-1.54 246.05-1.44L246.05-1.44Q246.29-1.34 246.29-0.76L246.29-0.76Q246.29-0.05 246.05 0L246.05 0 231.96 0Q231.72-0.05 231.72-0.76L231.72-0.76Q231.72-1.34 231.96-1.44L231.96-1.44Q232.28-1.59 232.86-1.67 233.45-1.76 234.04-2.01 234.62-2.27 235.06-2.82 235.5-3.37 235.5-4.44L235.5-4.44 235.5-16.19Q235.5-16.77 235.18-17.1 234.87-17.43 234.38-17.6 233.89-17.77 233.33-17.88 232.77-17.99 232.25-18.14L232.25-18.14Q232.11-18.19 232.02-18.27 231.94-18.36 231.94-18.63L231.94-18.63Q231.94-18.75 232.01-18.87 232.08-18.99 232.3-19.12L232.3-19.12ZM254.22-5.18L254.22-18.82 252.39-18.82Q252.05-18.82 251.85-18.99 251.66-19.17 251.64-19.36L251.64-19.36Q251.64-19.48 251.68-19.63 251.73-19.78 251.81-19.82L251.81-19.82Q252.29-20.14 252.87-20.57 253.44-21 254-21.46 254.56-21.92 255.1-22.39 255.64-22.85 256.05-23.24L256.05-23.24Q256.3-23.51 256.73-24.05 257.15-24.58 257.7-25.11 258.25-25.63 258.89-26.04 259.52-26.44 260.18-26.44L260.18-26.44Q260.33-26.44 260.52-26.34 260.72-26.25 260.72-26.1L260.72-26.1Q260.72-25.93 260.63-25.57 260.55-25.22 260.42-24.78 260.3-24.34 260.16-23.85 260.01-23.36 259.89-22.9L259.89-22.9Q259.89-22.71 259.95-22.58 260.01-22.46 260.28-22.44L260.28-22.44 266.5-22.44Q266.89-22.44 267.04-22.3 267.19-22.17 267.26-21.95L267.26-21.95Q267.31-21.83 267.36-21.45 267.41-21.07 267.46-20.62 267.5-20.17 267.54-19.71 267.58-19.26 267.58-18.97L267.58-18.97Q267.58-18.82 267.38-18.82L267.38-18.82 260.03-18.82Q259.91-18.82 259.9-18.77 259.89-18.73 259.89-18.6L259.89-18.6 259.89-6.47Q259.89-5.69 260.08-5.1 260.28-4.52 260.58-4.13 260.89-3.74 261.28-3.54 261.67-3.34 262.06-3.34L262.06-3.34Q263.18-3.34 263.89-3.67 264.6-4 265.11-4.39 265.62-4.79 266.02-5.11 266.41-5.44 266.89-5.44L266.89-5.44Q267.24-5.44 267.3-5.18 267.36-4.91 267.36-4.76L267.36-4.76Q267.36-4.44 267.27-4.26 267.19-4.08 267.14-3.98L267.14-3.98Q267.11-3.93 266.87-3.56 266.63-3.2 266.21-2.69 265.8-2.17 265.2-1.59 264.6-1 263.87-0.5 263.13 0 262.27 0.33 261.4 0.66 260.45 0.66L260.45 0.66Q259.13 0.66 257.98 0.17 256.84-0.32 256.01-1.14 255.18-1.95 254.7-3 254.22-4.05 254.22-5.18L254.22-5.18ZM282.64 0L269.89 0Q269.75-0.05 269.7-0.33 269.65-0.61 269.65-0.76L269.65-0.76Q269.65-0.88 269.72-1.15 269.8-1.42 269.89-1.46L269.89-1.46Q270.21-1.61 270.8-1.7 271.38-1.78 271.97-2.04 272.56-2.29 272.99-2.84 273.43-3.39 273.43-4.47L273.43-4.47 273.43-16.19Q273.43-16.77 273.12-17.1 272.8-17.43 272.31-17.6 271.82-17.77 271.26-17.88 270.7-17.99 270.19-18.14L270.19-18.14Q270.04-18.19 269.96-18.27 269.87-18.36 269.87-18.63L269.87-18.63Q269.87-18.75 269.94-18.87 270.02-18.99 270.24-19.12L270.24-19.12 278.32-22.92Q278.41-22.97 278.52-23.02 278.63-23.07 278.68-23.07L278.68-23.07Q279.1-23.07 279.1-22.49L279.1-22.49 279.1-4.47Q279.1-3.39 279.54-2.84 279.98-2.29 280.56-2.04 281.15-1.78 281.74-1.7 282.32-1.61 282.64-1.46L282.64-1.46Q282.74-1.42 282.81-1.15 282.88-0.88 282.88-0.76L282.88-0.76Q282.88-0.61 282.83-0.33 282.79-0.05 282.64 0L282.64 0ZM272.38-31.91L272.38-31.91Q272.38-33.47 273.31-34.4 274.24-35.33 275.8-35.33L275.8-35.33Q277.37-35.33 278.29-34.4 279.22-33.47 279.22-31.91L279.22-31.91Q279.22-30.35 278.29-29.43 277.37-28.52 275.8-28.52L275.8-28.52Q274.24-28.52 273.31-29.43 272.38-30.35 272.38-31.91ZM299.46-36.21L307.54-40.01Q307.64-40.06 307.75-40.11 307.86-40.16 307.9-40.16L307.9-40.16Q308.32-40.16 308.32-39.58L308.32-39.58 308.32-5.59Q308.32-4.52 308.87-4.05 309.42-3.59 310.52-3.59L310.52-3.59 311.93-3.69Q312.03-3.69 312.05-3.55 312.08-3.42 312.08-3.27L312.08-3.27Q312.08-3.22 312.02-3.14 311.96-3.05 311.71-2.95L311.71-2.95 303.36 0.51Q303.31 0.54 303.12 0.6 302.92 0.66 302.9 0.66L302.9 0.66Q302.73 0.66 302.69 0.45 302.66 0.24 302.66 0.05L302.66 0.05 302.66-1.64Q302.66-1.88 302.48-1.88L302.48-1.88Q302.41-1.88 302.26-1.81L302.26-1.81Q301.41-1.32 300.65-0.87 299.9-0.42 299.13-0.07 298.36 0.27 297.52 0.46 296.67 0.66 295.65 0.66L295.65 0.66Q293.45 0.66 291.69-0.24 289.94-1.15 288.72-2.66 287.49-4.17 286.84-6.13 286.18-8.08 286.18-10.21L286.18-10.21Q286.18-12.77 287.19-14.97 288.2-17.16 289.9-18.77 291.6-20.39 293.84-21.3 296.09-22.22 298.55-22.22L298.55-22.22Q299.21-22.22 299.7-22.09 300.19-21.97 300.6-21.84 301.02-21.7 301.43-21.58 301.85-21.46 302.36-21.46L302.36-21.46Q302.44-21.46 302.55-21.51 302.66-21.56 302.66-21.78L302.66-21.78 302.66-33.28Q302.66-33.86 302.34-34.19 302.02-34.52 301.53-34.69 301.04-34.86 300.48-34.97 299.92-35.08 299.41-35.23L299.41-35.23Q299.26-35.28 299.18-35.36 299.09-35.45 299.09-35.72L299.09-35.72Q299.09-35.84 299.16-35.96 299.24-36.08 299.46-36.21L299.46-36.21ZM291.72-11.3L291.72-11.3Q291.72-9.55 292.12-7.92 292.52-6.3 293.37-5.07 294.21-3.83 295.5-3.1 296.8-2.37 298.55-2.37L298.55-2.37Q298.82-2.37 299.51-2.51 300.19-2.66 300.89-2.89 301.58-3.13 302.12-3.44 302.66-3.76 302.66-4.13L302.66-4.13 302.66-16.26Q302.66-17.94 301.45-18.99 300.24-20.04 297.99-20.04L297.99-20.04Q296.36-20.04 295.17-19.27 293.99-18.51 293.22-17.26 292.45-16.02 292.08-14.45 291.72-12.89 291.72-11.3ZM327.31-2.71L324.45-0.49Q323.65 0.07 322.55 0.39 321.45 0.71 320.35 0.71L320.35 0.71Q317.37 0.71 315.82-0.63 314.27-1.98 314.27-4.27L314.27-4.27Q314.27-5.59 314.87-6.54 315.47-7.5 316.64-8.23 317.81-8.96 319.54-9.56 321.26-10.16 323.53-10.74L323.53-10.74Q324.75-11.06 325.49-11.43 326.24-11.79 326.87-12.13L326.87-12.13Q327.29-12.35 327.35-12.52 327.41-12.7 327.41-12.84L327.41-12.84 327.41-17.09Q327.41-17.9 327.18-18.59 326.95-19.29 326.48-19.8 326.02-20.31 325.36-20.61 324.7-20.9 323.87-20.9L323.87-20.9Q323.16-20.9 322.55-20.65 321.94-20.41 321.5-19.95 321.06-19.48 320.8-18.85 320.55-18.21 320.55-17.41L320.55-17.41Q320.55-17.33 320.56-17.19 320.57-17.04 320.6-16.88 320.62-16.72 320.65-16.6 320.67-16.48 320.67-16.46L320.67-16.46Q320.65-16.41 320.27-16.26 319.89-16.11 319.34-15.93 318.79-15.75 318.13-15.56 317.47-15.38 316.87-15.21 316.28-15.04 315.82-14.9 315.37-14.77 315.2-14.75L315.2-14.75Q314.93-14.75 314.87-15.03 314.81-15.31 314.81-15.58L314.81-15.58Q314.81-16.99 315.67-18.33 316.52-19.68 317.95-20.72 319.38-21.75 321.23-22.39 323.09-23.02 325.07-23.02L325.07-23.02Q326.82-23.02 328.21-22.57 329.61-22.12 330.58-21.33 331.56-20.53 332.07-19.49 332.58-18.46 332.58-17.29L332.58-17.29 332.58-5.64Q332.58-5 333.06-4.5 333.54-4 334.29-4L334.29-4Q334.73-4 335.09-4.16 335.44-4.32 335.72-4.53 336-4.74 336.2-4.9 336.39-5.05 336.54-5.05L336.54-5.05Q336.74-5.05 336.76-4.9 336.78-4.74 336.78-4.61L336.78-4.61Q336.78-4.2 336.67-3.77 336.56-3.34 336.3-3.15L336.3-3.15Q335.1-2.25 334.17-1.53 333.24-0.81 332.49-0.29 331.73 0.22 331.12 0.49 330.51 0.76 329.97 0.76L329.97 0.76Q329.48 0.76 329.11 0.49 328.73 0.22 328.45-0.17 328.17-0.56 327.97-1.01 327.78-1.46 327.64-1.86 327.51-2.25 327.43-2.49 327.36-2.73 327.31-2.71L327.31-2.71ZM319.96-4.86L319.96-4.86Q319.96-4.2 320.22-3.78 320.48-3.37 320.89-3.15 321.31-2.93 321.83-2.84 322.36-2.76 322.92-2.76L322.92-2.76Q323.43-2.76 324.19-3.02 324.94-3.27 325.66-3.7 326.38-4.13 326.9-4.68 327.41-5.22 327.41-5.79L327.41-5.79 327.41-9.81Q327.41-10.08 327.21-10.08L327.21-10.08Q327.16-10.08 327.12-10.06L327.12-10.06 321.45-7.42Q321.11-7.18 320.83-6.97 320.55-6.76 320.35-6.48 320.16-6.2 320.06-5.82 319.96-5.44 319.96-4.86Z" opacity="1" transform="matrix(1,0,0,1,0,0)" fill="#000000" class="undefined-text-0" data-fill-palette-color="quaternary" id="text-0"></path></svg></g></svg></g></svg></g></svg></g><g transform="matrix(1,0,0,1,86.40501341315606,0)"><svg viewBox="0 0 51.18997317368789 51.369853304284675" height="51.369853304284675" width="51.18997317368789"><g><svg xmlns="http://www.w3.org/2000/svg" data-name="Layer 1" viewBox="2 2 60 60.210838317871094" x="0" y="0" height="51.369853304284675" width="51.18997317368789" class="icon-icon-0" data-fill-palette-color="quaternary" id="icon-0"><path d="M31.811 19.07l2.7 0.736c0.065 0.171 0.135 0.34 0.213 0.508l-1.395 2.435a1 1 0 0 0 0.088 1.123 11.236 11.236 0 0 0 0.808 0.906 11.081 11.081 0 0 0 0.907 0.808 1 1 0 0 0 1.123 0.088l2.434-1.395c0.168 0.077 0.338 0.149 0.508 0.213l0.736 2.7a1 1 0 0 0 0.855 0.732 11.05 11.05 0 0 0 2.43 0 1 1 0 0 0 0.855-0.732l0.736-2.7c0.17-0.064 0.34-0.136 0.508-0.213l2.434 1.395a1 1 0 0 0 1.123-0.088 11.081 11.081 0 0 0 0.907-0.808 10.759 10.759 0 0 0 0.808-0.907 1 1 0 0 0 0.088-1.122l-1.4-2.435c0.077-0.168 0.149-0.338 0.213-0.508l2.7-0.736a1 1 0 0 0 0.732-0.854 11.109 11.109 0 0 0 0-2.432 1 1 0 0 0-0.732-0.854l-2.7-0.736c-0.064-0.17-0.136-0.34-0.213-0.508l1.4-2.435a1 1 0 0 0-0.088-1.122 10.936 10.936 0 0 0-0.808-0.908 11.256 11.256 0 0 0-0.907-0.807 1 1 0 0 0-1.123-0.088L45.32 9.721c-0.168-0.078-0.338-0.149-0.508-0.213l-0.735-2.7a1 1 0 0 0-0.856-0.732 11.091 11.091 0 0 0-2.43 0 1 1 0 0 0-0.855 0.732l-0.736 2.7c-0.17 0.064-0.34 0.136-0.508 0.213L36.258 8.326a1 1 0 0 0-1.123 0.088 11.081 11.081 0 0 0-0.907 0.808 11.236 11.236 0 0 0-0.808 0.906 1 1 0 0 0-0.088 1.123l1.395 2.435c-0.078 0.168-0.148 0.337-0.213 0.508l-2.7 0.735a1 1 0 0 0-0.732 0.855 11.1 11.1 0 0 0 0 2.431A1 1 0 0 0 31.811 19.07Zm1.207-2.4l2.535-0.689a1 1 0 0 0 0.7-0.682 5.955 5.955 0 0 1 0.489-1.169 1 1 0 0 0-0.01-0.976l-1.311-2.288c0.073-0.078 0.147-0.157 0.224-0.233s0.154-0.151 0.233-0.224l2.288 1.31a1 1 0 0 0 0.975 0.011 5.92 5.92 0 0 1 1.169-0.488 1 1 0 0 0 0.683-0.7l0.69-2.535c0.218-0.008 0.435-0.008 0.653 0l0.688 2.535a1 1 0 0 0 0.684 0.7 5.928 5.928 0 0 1 1.17 0.488 1 1 0 0 0 0.975-0.011l2.287-1.31c0.079 0.073 0.156 0.148 0.233 0.224s0.151 0.154 0.224 0.233l-1.31 2.288a1 1 0 0 0-0.011 0.975 5.98 5.98 0 0 1 0.488 1.169 1 1 0 0 0 0.7 0.683l2.536 0.69q0.012 0.325 0 0.653l-2.536 0.689a1 1 0 0 0-0.7 0.683 5.98 5.98 0 0 1-0.488 1.169 1 1 0 0 0 0.011 0.975l1.31 2.288c-0.073 0.078-0.147 0.156-0.223 0.233s-0.155 0.151-0.234 0.224l-2.287-1.31a1 1 0 0 0-0.975-0.011 5.963 5.963 0 0 1-1.17 0.488 1 1 0 0 0-0.684 0.7l-0.689 2.535q-0.327 0.012-0.652 0l-0.69-2.535a1 1 0 0 0-0.683-0.7 5.92 5.92 0 0 1-1.169-0.488 1 1 0 0 0-0.975 0.011l-2.288 1.31c-0.079-0.073-0.156-0.147-0.233-0.224s-0.151-0.155-0.224-0.233l1.311-2.288a1 1 0 0 0 0.01-0.976A5.955 5.955 0 0 1 36.25 18.7a1 1 0 0 0-0.7-0.682l-2.535-0.69Q33.006 17 33.018 16.673Z" fill="#000000" data-fill-palette-color="quaternary"></path><path d="M42.006 21a4 4 0 1 0-4-4A4 4 0 0 0 42.006 21Zm0-6a2 2 0 1 1-2 2A2 2 0 0 1 42.006 15Z" fill="#000000" data-fill-palette-color="quaternary"></path><rect x="52" y="6" width="2" height="2" fill="#000000" data-fill-palette-color="quaternary"></rect><rect x="56" y="6" width="2" height="2" fill="#000000" data-fill-palette-color="quaternary"></rect><path d="M3 62H28a1 1 0 0 0 1-1V56a1 1 0 0 0-1-1H3a1 1 0 0 0-1 1v5A1 1 0 0 0 3 62Zm1-5H27v3H4Z" fill="#000000" data-fill-palette-color="quaternary"></path><path d="M61 2H23a1 1 0 0 0-1 1V25.624A11.99 11.99 0 1 0 28 36H39v6H32a1 1 0 0 0-1 1v5a1 1 0 0 0 1 1H52a1 1 0 0 0 1-1V43a1 1 0 0 0-1-1H45V36H61a1 1 0 0 0 1-1V3A1 1 0 0 0 61 2ZM16 46a10 10 0 1 1 7.466-16.63c0.093 0.105 0.19 0.2 0.278 0.314 0.076 0.092 0.143 0.191 0.215 0.286 0.137 0.182 0.275 0.364 0.4 0.557 0.033 0.05 0.062 0.1 0.094 0.153 0.151 0.242 0.3 0.489 0.429 0.746 0.022 0.041 0.04 0.084 0.061 0.125 0.122 0.246 0.237 0.494 0.338 0.746 0.019 0.046 0.034 0.094 0.052 0.141 0.1 0.249 0.184 0.5 0.259 0.757 0.016 0.055 0.028 0.111 0.043 0.167 0.07 0.253 0.134 0.508 0.183 0.766 0.009 0.046 0.013 0.093 0.021 0.139 0.048 0.272 0.09 0.546 0.115 0.823h0c0.027 0.3 0.046 0.6 0.046 0.909A10.011 10.011 0 0 1 16 46Zm35-2v3H33V44H51ZM41 42V36h2v6Zm19-8H27.828c-0.008-0.049-0.022-0.1-0.031-0.145-0.039-0.217-0.087-0.431-0.138-0.644-0.033-0.141-0.069-0.28-0.108-0.419-0.061-0.22-0.127-0.438-0.2-0.654-0.016-0.045-0.027-0.092-0.043-0.138H60Zm0-4H26.384c-0.07-0.122-0.15-0.236-0.224-0.355-0.086-0.138-0.167-0.278-0.259-0.412-0.2-0.3-0.416-0.582-0.641-0.857l-0.02-0.022c-0.229-0.278-0.473-0.543-0.726-0.8l-0.1-0.1c-0.136-0.134-0.268-0.271-0.411-0.4V4H60Z" fill="#000000" data-fill-palette-color="quaternary"></path><path d="M16 32a4 4 0 1 0 4 4A4 4 0 0 0 16 32Zm0 6a2 2 0 1 1 2-2A2 2 0 0 1 16 38Z" fill="#000000" data-fill-palette-color="quaternary"></path><rect x="4" y="46" width="2" height="7" fill="#000000" data-fill-palette-color="quaternary"></rect><rect x="25" y="46" width="2" height="7" fill="#000000" data-fill-palette-color="quaternary"></rect><rect x="21" y="49" width="2" height="4" fill="#000000" data-fill-palette-color="quaternary"></rect><rect x="8" y="49" width="2" height="4" fill="#000000" data-fill-palette-color="quaternary"></rect><rect x="12" y="51" width="2" height="2" fill="#000000" data-fill-palette-color="quaternary"></rect><rect x="17" y="51" width="2" height="2" fill="#000000" data-fill-palette-color="quaternary"></rect><path d="M60.981 52.7a3.888 3.888 0 0 0-0.36-0.806c-0.011-0.019-0.025-0.037-0.037-0.056a3.693 3.693 0 0 0-0.535-0.687 3.732 3.732 0 0 0-0.683-0.533c-0.021-0.013-0.04-0.028-0.061-0.04a3.953 3.953 0 0 0-0.8-0.357l-0.028-0.009a6.3 6.3 0 0 0-5.035 0.883l-0.039 0.023a9.518 9.518 0 0 0-0.956 0.667c-0.018 0.014-0.037 0.024-0.054 0.038h0c-0.025 0.02-0.048 0.045-0.073 0.065-0.257 0.211-0.511 0.432-0.756 0.677-2.775 2.776-3.4 6.5-1.414 8.485a4.125 4.125 0 0 0 2.992 1.159 5.6 5.6 0 0 0 0.678-0.042 8.027 8.027 0 0 0 3.94-1.761 10.078 10.078 0 0 0 0.876-0.77l0.013-0.014c0.239-0.241 0.457-0.49 0.664-0.743 0.02-0.024 0.045-0.047 0.064-0.072h0c0.014-0.017 0.024-0.036 0.037-0.053a9.4 9.4 0 0 0 0.67-0.961l0.019-0.032a6.29 6.29 0 0 0 0.884-5.043Zm-6.161-0.077c0.088-0.046 0.176-0.094 0.264-0.135s0.2-0.086 0.3-0.126 0.176-0.072 0.264-0.1 0.186-0.06 0.279-0.086 0.188-0.052 0.28-0.073 0.166-0.034 0.248-0.048c0.1-0.016 0.2-0.028 0.3-0.037 0.07-0.006 0.141-0.012 0.209-0.014 0.106 0 0.209 0 0.31 0.008 0.059 0 0.119 0.006 0.176 0.014a2.345 2.345 0 0 1 0.26 0.054l-1.9 1.9L54.579 52.75C54.659 52.7 54.74 52.664 54.82 52.622Zm2.4 5.6c-1.917 1.916-4.508 2.563-5.657 1.414a1.966 1.966 0 0 1-0.534-1.1A3.076 3.076 0 0 1 51 57.845c0-0.046 0.018-0.1 0.023-0.143a4.893 4.893 0 0 1 0.361-1.395 7.376 7.376 0 0 1 1.593-2.328h0l4.242 4.243Zm1.965-3.793a4.211 4.211 0 0 1-0.095 0.6c-0.014 0.059-0.03 0.119-0.047 0.179a5.449 5.449 0 0 1-0.2 0.6c-0.017 0.042-0.031 0.084-0.049 0.127a6.735 6.735 0 0 1-0.347 0.689l-1.227-1.227 1.9-1.9c0.006 0.021 0.015 0.041 0.02 0.062 0.011 0.056 0.026 0.11 0.035 0.168a3.151 3.151 0 0 1 0.026 0.612C59.2 54.367 59.189 54.4 59.186 54.428Z" fill="#000000" data-fill-palette-color="quaternary"></path></svg></g></svg></g><g></g></svg></g></svg></g></svg></g></svg></g><defs></defs></svg><rect width="320" height="360" fill="none" stroke="none" visibility="hidden"></rect></g></svg></g></svg>